<svg
  version="1.1"
  id="Capa_1"
  xmlns="http://www.w3.org/2000/svg"
  xmlns:xlink="http://www.w3.org/1999/xlink"
  x="0px"
  y="0px"
  viewBox="0 0 58.001 58.001"
  xml:space="preserve"
  style="background: transparent"
>
  <path
    style="fill: #88c057"
    d="M29,19.5c-0.552,0-1-0.447-1-1v-8c0-0.553,0.448-1,1-1s1,0.447,1,1v8C30,19.053,29.552,19.5,29,19.5z
	"
  />
  <path
    style="fill: #88c057"
    d="M29,17.5c-0.256,0-0.512-0.098-0.707-0.293l-2-2c-0.391-0.391-0.391-1.023,0-1.414
	s1.023-0.391,1.414,0l2,2c0.391,0.391,0.391,1.023,0,1.414C29.512,17.403,29.256,17.5,29,17.5z"
  />
  <path
    style="fill: #88c057"
    d="M29,15.5c-0.256,0-0.512-0.098-0.707-0.293c-0.391-0.391-0.391-1.023,0-1.414l2-2
	c0.391-0.391,1.023-0.391,1.414,0s0.391,1.023,0,1.414l-2,2C29.512,15.403,29.256,15.5,29,15.5z"
  />
  <path
    style="fill: #553323"
    d="M57,54.5c-0.426,0-0.82-0.273-0.954-0.702l-5-16c-0.165-0.526,0.129-1.088,0.656-1.252
	c0.525-0.166,1.088,0.128,1.253,0.656l5,16c0.165,0.526-0.129,1.088-0.656,1.252C57.199,54.486,57.099,54.5,57,54.5z"
  />
  <path
    style="fill: #553323"
    d="M47.001,54.5c-0.081,0-0.162-0.01-0.244-0.03c-0.536-0.134-0.861-0.677-0.728-1.212l4-16
	c0.135-0.536,0.68-0.86,1.213-0.728c0.536,0.134,0.861,0.677,0.728,1.212l-4,16C47.857,54.198,47.449,54.5,47.001,54.5z"
  />
  <path
    style="fill: #553323"
    d="M11,54.5c-0.426,0-0.82-0.273-0.954-0.702l-5-16c-0.165-0.526,0.129-1.088,0.656-1.252
	c0.525-0.166,1.088,0.128,1.253,0.656l5,16c0.165,0.526-0.129,1.088-0.656,1.252C11.199,54.486,11.099,54.5,11,54.5z"
  />
  <path
    style="fill: #553323"
    d="M1.001,54.5c-0.081,0-0.162-0.01-0.244-0.03c-0.536-0.134-0.861-0.677-0.728-1.212l4-16
	c0.134-0.536,0.678-0.86,1.213-0.728c0.536,0.134,0.861,0.677,0.728,1.212l-4,16C1.857,54.198,1.449,54.5,1.001,54.5z"
  />
  <path
    style="fill: #c7cac7"
    d="M18,53.5h22c-4.971,0-9-4.029-9-9v-9h3v-4H24v4h3v9C27,49.471,22.971,53.5,18,53.5z"
  />
  <path
    style="fill: #553323"
    d="M48.043,27.5H9.958c1.152,1.147,2.091,2.504,2.779,4h32.526C45.952,30.004,46.89,28.648,48.043,27.5z
	"
  />
  <rect x="13" y="24.5" style="fill: #c7cac7" width="6" height="3" />
  <path
    style="fill: #c7cac7"
    d="M21,25.5H11c-0.552,0-1-0.447-1-1s0.448-1,1-1h10c0.552,0,1,0.447,1,1S21.552,25.5,21,25.5z"
  />
  <rect x="39" y="24.5" style="fill: #c7cac7" width="6" height="3" />
  <path
    style="fill: #c7cac7"
    d="M47,25.5H37c-0.552,0-1-0.447-1-1s0.448-1,1-1h10c0.552,0,1,0.447,1,1S47.552,25.5,47,25.5z"
  />
  <path
    style="fill: #c7cac7"
    d="M26.025,18.5C25.39,20.093,25,20.192,25,22.5c0,4.97,1.791,5,4,5s4-0.03,4-5
	c0-2.308-0.39-2.407-1.025-4H26.025z"
  />
  <path style="fill: #dd352e" d="M29,3.5h-3v4c0,1.65,1.35,3,3,3V3.5z" />
  <path style="fill: #b02721" d="M29,4.5h3v3c0,1.65-1.35,3-3,3V4.5z" />
  <path
    style="fill: #bfa380"
    d="M14,37.5H4.366C1.955,37.5,0,35.546,0,33.135V23.5h0.274C7.855,23.5,14,29.646,14,37.226V37.5z"
  />
  <path
    style="fill: #bfa380"
    d="M44,37.5h9.634c2.411,0,4.366-1.955,4.366-4.366V23.5h-0.274C50.146,23.5,44,29.646,44,37.226V37.5z"
  />
  <path
    style="fill: #839594"
    d="M44,54.5H14c-0.552,0-1-0.447-1-1s0.448-1,1-1h30c0.552,0,1,0.447,1,1S44.552,54.5,44,54.5z"
  />
  <rect x="24" y="32.5" style="fill: #839594" width="10" height="3" />
  <path
    style="fill: #e7eced"
    d="M30,52.5h-3l0.112-2.014c0.033-0.591,0.172-1.167,0.349-1.732C27.818,47.62,28,46.436,28,45.244V35.5
	h1v9.744c0,1.192,0.182,2.376,0.538,3.511c0.177,0.565,0.316,1.141,0.349,1.732L30,52.5z"
  />
</svg>
