<svg xmlns="http://www.w3.org/2000/svg" x="0px" y="0px"
	 viewBox="0 0 652 652" xml:space="preserve">
<path fill='#E99044' d="M161.8,293.9l-70.2-70.7c-0.1-0.1-0.2-0.1-0.3,0l-70.2,70.7c-0.1,0.1-0.1,0.1-0.1,0.2v71.1
	c0,0.1,0.1,0.2,0.2,0.2h140.3c0.1,0,0.2-0.1,0.2-0.2V294C161.9,293.9,161.8,293.9,161.8,293.9z M141.9,343.7c0,1.3-0.3,1.7-1.5,1.7
	H42.5c-1.4,0-1.4-1.1-1.4-1.6v-39.5c0-2,0.1-2.1,1.3-3.5l0.1-0.1c1.3-1.3,46.8-47.1,47.3-47.6c0.8-0.8,1.3-1.2,1.7-1.2s1,0.4,1.5,1
	c1.3,1.3,47.5,47.8,47.9,48.3c0.6,0.5,1,1.3,1,2.1V343.7z"/>
<path fill='#2E2B28' d="M249.4,384h5.7v14.4h13.5V384h5.7v34.3h-5.7v-14.6h-13.5v14.6h-5.7C249.4,418.3,249.4,384,249.4,384z
	 M282.3,401.5V401c0-10.2,6.3-17.5,15.2-17.5c8.9,0,15.2,7.2,15.2,17.4v0.5c0,10.2-6.3,17.5-15.2,17.5
	C288.6,418.9,282.3,411.6,282.3,401.5z M306.8,401.4v-0.3c0-7.3-3.9-12.3-9.4-12.3c-5.4,0-9.3,4.8-9.3,12.2v0.3
	c0,7.3,4,12.3,9.4,12.3C302.9,413.6,306.8,408.8,306.8,401.4z M321.3,384h6l8.8,15.8l8.8-15.8h6v34.3h-5.6v-24.2L336,410h-0.2
	l-9-15.8v24.1h-5.6V384z M362.9,384h21.6v5.2h-16v9.3h14.1v5.2h-14.1v9.5h16.2v5.2h-21.8L362.9,384L362.9,384z M392.4,413.8l3.4-4.3
	c2.5,2.3,5.4,4,9,4c3.3,0,5.4-1.8,5.4-4.4v-0.1c0-2.1-1.1-3.6-6.6-5.6c-6.5-2.5-9.9-4.8-9.9-10.3v-0.1c0-5.6,4.5-9.6,10.9-9.6
	c4-0.1,7.8,1.3,10.8,4l-3.3,4.4c-2.4-1.9-4.9-3.3-7.7-3.3c-3.1,0-5,1.7-5,4v0.1c0,2.4,1.3,3.7,7.1,6c6.3,2.5,9.3,5.1,9.3,10.1v0.1
	c0,6-4.7,9.9-11.1,9.9C400.2,418.8,395.7,417,392.4,413.8z M430.5,389.3h-9V384h23.7v5.3h-9v29h-5.6V389.3z M448.9,401.5V401
	c0-10.2,6.3-17.5,15.2-17.5c8.9,0,15.2,7.2,15.2,17.4v0.5c0,10.2-6.3,17.5-15.2,17.5C455.1,418.9,448.9,411.6,448.9,401.5z
	 M473.4,401.4v-0.3c0-7.3-3.9-12.3-9.4-12.3c-5.4,0-9.3,4.8-9.3,12.2v0.3c0,7.3,4,12.3,9.4,12.3S473.4,408.8,473.4,401.4z
	 M486.4,384h12.4c3.9,0,7.1,1.2,9.1,3.3c1.9,2.1,2.9,4.8,2.9,7.5v0.2c0,5.3-2.9,8.6-7.1,10.1l8.1,13.3h-6.6l-7.3-12.1
	c-0.1,0.1-0.2,0.1-0.3,0.1h-5.5v12.1h-5.7V384L486.4,384z M498.2,401.2c4.4,0,6.8-2.4,6.8-6v-0.1c0-3.9-2.5-5.9-6.7-5.9h-6.2v11.9
	H498.2z M520.9,384h21.6v5.2h-16v9.3h14.1v5.2h-14.1v9.5h16.2v5.2h-21.8V384z M595.3,290v7.1h10.6l-15.7,40.6L573.5,297h8.7v-7.1
	h-35.4v7.1h6l27.1,66.5c-3.7,9.5-5.7,13.3-10.1,19c-3.5,4.7-7.9,8.7-12.9,11.7l10.6,9.4c1.2-1.5,2.1-2.7,2.9-3.8
	c5.4-7.4,11.3-19,15.6-30l28-72.7h6.9V290H595.3z M511,368.3c-22.5,0-37.4-16-37.4-39.7c0-24.3,15.2-40.4,38.4-40.4
	c19.4,0,32.3,12.1,32.3,30.5v6.3h-50.1c0,20.8,9.4,33.6,24.4,33.6c6.2,0,9.8-1.5,23.3-8.7l3,7C528.5,366.3,522.7,368.3,511,368.3z
	 M523.5,312.5c0-10.1-4.8-17.1-11.7-17.1c-8.9,0-15.9,8.4-17.5,21.1h29.1L523.5,312.5z M270.3,359.1L231.2,252h-9.6l-40.6,107.1
	h-6.5v7.1h24.1v-7.1h-7.3l10.2-27.1h38.3l9.8,27.1h-4.9v7.1H277v-7.1H270.3z M205.2,321.7l16-41.9l14.9,41.9H205.2z M316.1,320
	c-17.8-7.1-20.5-9-20.5-15.2c0-5.7,4.8-9.4,12.1-9.4c8.4,0,17.5,4.8,17.7,11c0,0.9,0,1.7-0.1,2.6h8.3l1.2-18.9h-8.3l-0.2,3.7
	c-4.8-4-10.6-5.7-18.7-5.7c-16.1,0-26.8,9.2-26.8,23.1c0,11.7,6,18.4,22.3,24.6c16.4,6.2,20.6,9.5,20.6,16.3c0,5.4-5,8.9-13.1,8.9
	c-10.4,0-19.8-6-19.8-12.8v-3.4h-9.2v21.1h8.2v-4.5c5,4.5,11.9,6.7,21.6,6.7c16.9,0,26.7-8.6,26.7-23.3
	C338.1,333,332.5,326.5,316.1,320z M419.6,309.2c0-13.6-7.7-21-21.7-21c-10.6,0-16.4,3-27.3,14v-61.7h-5.2l-21.9,7.2v6.8h7.5v104.5
	h-7.6v7.1h34.7v-7.1h-7.5v-47.9c11-10.4,13.7-12.1,20.2-12.1c6.8,0,9.2,3.2,9.2,13.3v46.7h-7.5v7.1h34.8v-7.1h-7.6V309.2z
	 M461.6,359.1V240.5h-4.5l-21.8,7.1v6.8h6.8V359h-7.7v7.1h34.8V359L461.6,359.1L461.6,359.1z"/>
<path fill='#3D3935' d="M617.6,368.3c-2.5,2.5-6.6,2.5-9.1-0.1c-1.2-1.2-1.9-2.9-1.8-4.6c-0.1-1.8,0.7-3.5,2-4.7
	c1.2-1.1,2.8-1.7,4.4-1.7c3.6,0,6.5,2.9,6.5,6.5C619.6,365.5,618.9,367.1,617.6,368.3L617.6,368.3z M609.3,359.9
	c-2.1,2.1-2.1,5.5,0.1,7.6c1,1,2.4,1.5,3.7,1.5c1.4,0,2.8-0.6,3.8-1.6c2.1-2.1,2.1-5.5,0-7.5c-2-2.1-5.3-2.1-7.5-0.2
	C609.4,359.8,609.3,359.8,609.3,359.9L609.3,359.9z M610.3,367.3v-7.1c0.5,0,1.1,0,2,0s1.3,0,1.5,0c0.5,0,1,0.2,1.4,0.4
	c0.6,0.3,1,1,1,1.7c0.1,0.5-0.2,1-0.5,1.3c-0.3,0.2-0.8,0.5-1.3,0.5c0.4,0.1,0.7,0.2,1,0.4c0.5,0.4,0.7,1,0.6,1.6v0.6
	c0,0.1,0,0.2,0,0.2c0,0.1,0,0.2,0.1,0.2l0.1,0.2h-1.8c-0.2-0.5-0.2-0.9-0.2-1.2s-0.1-0.6-0.2-0.9c-0.1-0.2-0.2-0.5-0.6-0.6
	c-0.2-0.1-0.4-0.1-0.6-0.1h-0.4h-0.4v2.5H610.3z M613.7,361.5c-0.3-0.1-0.7-0.2-1.1-0.2h-0.5v2.1h0.7c0.4,0,0.7-0.1,1-0.2
	c0.2-0.2,0.4-0.6,0.4-0.9S614,361.6,613.7,361.5L613.7,361.5z"/>
</svg>