<svg version="1.1" xmlns="http://www.w3.org/2000/svg" viewBox="-23.11 -23.11 277.31 277.31" xmlns:xlink="http://www.w3.org/1999/xlink" enable-background="new 0 0 231.087 231.087" stroke="#ffffff" stroke-width="5.777175" transform="rotate(0)matrix(1, 0, 0, 1, 0, 0)"><g id="SVGRepo_bgCarrier" stroke-width="0"></g><g id="SVGRepo_tracerCarrier" stroke-linecap="round" stroke-linejoin="round" stroke="#CCCCCC" stroke-width="5.083914"></g><g id="SVGRepo_iconCarrier"> <g> <path d="m230.042,142.627c-1.871-2.744-5.612-3.452-8.355-1.581l-65.513,44.667-14.55-19.473c-1.526-2.036-4.241-2.977-6.788-2.129-3.185,1.06-4.908,4.501-3.848,7.686l11.908,35.785c0.45,1.33 1.184,2.645 2.18,3.757 3.94,4.401 10.702,4.776 15.104,0.836l.777-.695 68.129-60.985c2.216-1.981 2.676-5.346 0.956-7.868z"></path> <path d="m120.211,190.676h-108.211v-162.49h158.43v124.823c0,3.313 2.687,6 6,6s6-2.687 6-6v-130.823c0-3.313-2.687-6-6-6h-170.43c-3.313,0-6,2.687-6,6v174.49c0,3.313 2.687,6 6,6h114.211c3.313,0 6-2.687 6-6 0-3.314-2.687-6-6-6z"></path> <path d="m139.694,53.855h-96.959c-3.313,0-6,2.687-6,6s2.687,6 6,6h96.959c3.313,0 6-2.687 6-6s-2.686-6-6-6z"></path> <path d="m139.694,79.79h-96.959c-3.313,0-6,2.687-6,6s2.687,6 6,6h96.959c3.313,0 6-2.687 6-6s-2.686-6-6-6z"></path> <path d="m139.694,105.725h-96.959c-3.313,0-6,2.687-6,6s2.687,6 6,6h96.959c3.313,0 6-2.687 6-6s-2.686-6-6-6z"></path> <path d="m145.694,137.659c0-3.313-2.687-6-6-6h-96.959c-3.313,0-6,2.687-6,6s2.687,6 6,6h96.959c3.314,0 6-2.686 6-6z"></path> <path d="M42.735,156.329c-3.313,0-6,2.687-6,6s2.687,6,6,6h48.479c3.313,0,6-2.687,6-6s-2.687-6-6-6H42.735z"></path> </g> </g></svg>