<svg id="Layer_1" data-name="Layer 1" xmlns="http://www.w3.org/2000/svg" viewBox="0 0 230 105.06"><defs><style>.cls-1{fill:#231f20;}</style></defs><title>logo</title><path class="cls-1" d="M43.55,2.68a4.82,4.82,0,0,0-1.24.25A6,6,0,0,0,41,3.52a4.47,4.47,0,0,0-1.21,1.09,5.67,5.67,0,0,0-.8,1.7q-1.52,4.95-3.54,11.56T31.1,32h-2L21.45,8.53,13.47,32H11.58L7.18,16.38l-3-10.81A3.78,3.78,0,0,0,3.58,4.4a4,4,0,0,0-1-.92A3.94,3.94,0,0,0,1.3,2.93,7.7,7.7,0,0,0,0,2.68V1.16H12.4V2.68A19,19,0,0,0,9.64,3q-1.15.23-1.15,0.79a3.3,3.3,0,0,0,.06.57c0,0.23.08,0.42,0.11,0.57q0.49,1.89,1.74,6.24t3.72,13L21.7,1.59h2.1l7.66,23.09q1.55-5.35,2.66-9.31T36,8.55q0.52-2,.64-2.74a7.55,7.55,0,0,0,.13-1.26,1.45,1.45,0,0,0-1-1.22,9.43,9.43,0,0,0-3.22-.66V1.16h11V2.68h0Z" transform="translate(0 -0.47)"/><path class="cls-1" d="M59.18,31.57H45.48V30.05l1.67-.14a6.17,6.17,0,0,0,1.55-.26,2.12,2.12,0,0,0,1-.76A2.4,2.4,0,0,0,50,27.56v-22a3,3,0,0,0-.23-1.26,1.92,1.92,0,0,0-1.11-.85A11.25,11.25,0,0,0,47.08,3a10.7,10.7,0,0,0-1.6-.27V1.16H59.18V2.68a13.84,13.84,0,0,0-1.59.16A11.07,11.07,0,0,0,56,3.2,1.69,1.69,0,0,0,54.9,4a2.92,2.92,0,0,0-.28,1.28v22a2.49,2.49,0,0,0,.31,1.26,2.12,2.12,0,0,0,1.05.87,10.06,10.06,0,0,0,1.47.38,10.69,10.69,0,0,0,1.72.23v1.52h0Z" transform="translate(0 -0.47)"/><path class="cls-1" d="M87.31,22.52l-0.64,9H62.9V30.05l1.5-.14a5.15,5.15,0,0,0,1.38-.28,1.84,1.84,0,0,0,.92-0.81A2.88,2.88,0,0,0,67,27.44V5.66a3.15,3.15,0,0,0-.25-1.29,1.86,1.86,0,0,0-1-.92,7.3,7.3,0,0,0-1.38-.51,7.93,7.93,0,0,0-1.47-.29V1.16H75.76V2.68a10,10,0,0,0-1.55.22,11.61,11.61,0,0,0-1.38.34,1.6,1.6,0,0,0-1,.88,3.32,3.32,0,0,0-.27,1.33V25.87a13.22,13.22,0,0,0,.14,2.2,2,2,0,0,0,.65,1.21,3,3,0,0,0,1.47.51,24.3,24.3,0,0,0,2.73.12q0.79,0,1.65,0a14.26,14.26,0,0,0,1.63-.17,8.31,8.31,0,0,0,1.38-.35,2.2,2.2,0,0,0,.92-0.57,19.2,19.2,0,0,0,2.05-3,21.33,21.33,0,0,0,1.62-3.25h1.51Z" transform="translate(0 -0.47)"/><path class="cls-1" d="M114.38,22.52l-0.64,9H90V30.05l1.49-.15a5.15,5.15,0,0,0,1.38-.28,1.84,1.84,0,0,0,.92-0.81A2.88,2.88,0,0,0,94,27.42V5.66a3.16,3.16,0,0,0-.25-1.29,1.87,1.87,0,0,0-1-.92,7.3,7.3,0,0,0-1.38-.51A7.93,7.93,0,0,0,90,2.65V1.16h12.84V2.68a10,10,0,0,0-1.55.22,11.6,11.6,0,0,0-1.38.34,1.6,1.6,0,0,0-1,.88,3.32,3.32,0,0,0-.27,1.33V25.87a13.22,13.22,0,0,0,.14,2.2,2,2,0,0,0,.65,1.21,3,3,0,0,0,1.47.51,24.33,24.33,0,0,0,2.73.12q0.79,0,1.65,0a14.26,14.26,0,0,0,1.63-.17,8.28,8.28,0,0,0,1.38-.35,2.19,2.19,0,0,0,.92-0.57,19.19,19.19,0,0,0,2-3,21.3,21.3,0,0,0,1.62-3.25h1.53Z" transform="translate(0 -0.47)"/><path class="cls-1" d="M130.53,31.57H116.84V30.05l1.67-.13a6.18,6.18,0,0,0,1.55-.26,2.12,2.12,0,0,0,1-.76,2.4,2.4,0,0,0,.32-1.34v-22a3,3,0,0,0-.23-1.26,1.92,1.92,0,0,0-1.11-.85A11.29,11.29,0,0,0,118.44,3a10.72,10.72,0,0,0-1.6-.29V1.16h13.69V2.68a13.83,13.83,0,0,0-1.59.16,11,11,0,0,0-1.61.35,1.69,1.69,0,0,0-1.09.84A2.93,2.93,0,0,0,126,5.32v22a2.5,2.5,0,0,0,.31,1.26,2.13,2.13,0,0,0,1.06.87,10.06,10.06,0,0,0,1.47.38,10.68,10.68,0,0,0,1.72.23v1.52h0Z" transform="translate(0 -0.47)"/><path class="cls-1" d="M165.11,31.57H152.47V30.05a13.17,13.17,0,0,0,2.76-.43q1.1-.32,1.1-0.79a3.17,3.17,0,0,0,0-.46,2.3,2.3,0,0,0-.13-0.49L153.64,21H143q-0.6,1.5-1,2.61t-0.68,2.06a14.72,14.72,0,0,0-.39,1.5,5.37,5.37,0,0,0-.11.92,1.58,1.58,0,0,0,1.35,1.33,10.86,10.86,0,0,0,3,.56v1.52H133.79V30.05a9,9,0,0,0,1.38-.25,4.53,4.53,0,0,0,1.38-.55A5.4,5.4,0,0,0,137.88,28a7.93,7.93,0,0,0,.92-1.75q2.3-5.72,5.06-12.88t4.93-12.69h1.72l10.12,26.22a5.16,5.16,0,0,0,.73,1.35,5,5,0,0,0,1.14,1,4.76,4.76,0,0,0,1.28.5,6.57,6.57,0,0,0,1.33.23v1.52ZM152.88,19.15l-4.6-11.8-4.54,11.8h9.14Z" transform="translate(0 -0.47)"/><path class="cls-1" d="M205.45,31.57H192V30.05a14.94,14.94,0,0,0,1.88-.15,4.74,4.74,0,0,0,1.58-.36,2.8,2.8,0,0,0,1-.92,2.56,2.56,0,0,0,.31-1.32V5.16h-0.33L186.05,31.08H185L175.1,4.61h-0.3V22.78a18.16,18.16,0,0,0,.33,4,3.72,3.72,0,0,0,1,2,4.94,4.94,0,0,0,2,.86,11.8,11.8,0,0,0,1.93.43v1.52H167.78V30.05a15.71,15.71,0,0,0,2-.32,3.92,3.92,0,0,0,1.64-.71,3.14,3.14,0,0,0,1-1.84,21.44,21.44,0,0,0,.28-4.14V7.46a6.37,6.37,0,0,0-.32-2.21,3.45,3.45,0,0,0-.92-1.38A4.23,4.23,0,0,0,169.88,3,8.21,8.21,0,0,0,168,2.69V1.16h10.37L187.05,24l7.43-19.1a18.86,18.86,0,0,0,.69-2.2,10.37,10.37,0,0,0,.33-1.53h9.92V2.68a11,11,0,0,0-1.53.19,10.15,10.15,0,0,0-1.38.32,1.57,1.57,0,0,0-1,.86,3.3,3.3,0,0,0-.26,1.31V27.29a2.82,2.82,0,0,0,.26,1.25,2.19,2.19,0,0,0,1,.92,5,5,0,0,0,1.38.4,11.52,11.52,0,0,0,1.56.2v1.52h0Z" transform="translate(0 -0.47)"/><path class="cls-1" d="M228.11,17.62A7.09,7.09,0,0,1,229.54,20a8.74,8.74,0,0,1,.46,3,8.45,8.45,0,0,1-3,6.64,10.81,10.81,0,0,1-7.39,2.64,13.66,13.66,0,0,1-4.07-.63,15.72,15.72,0,0,1-3.5-1.55l-0.92,1.56h-1.72L209.1,21.17h1.73a23,23,0,0,0,1.26,3.48,12.16,12.16,0,0,0,1.9,2.9,8.6,8.6,0,0,0,2.6,2,7.6,7.6,0,0,0,3.46.75,7.82,7.82,0,0,0,2.59-.39,4.32,4.32,0,0,0,2.81-2.76,6.69,6.69,0,0,0,.33-2.2,6.11,6.11,0,0,0-1-3.4,6.34,6.34,0,0,0-3.06-2.39q-1.38-.55-3.19-1.23t-3.11-1.27a10.08,10.08,0,0,1-4-3A7.87,7.87,0,0,1,210,8.76a7.48,7.48,0,0,1,.72-3.23,8.43,8.43,0,0,1,2-2.68,9.13,9.13,0,0,1,2.93-1.75,10,10,0,0,1,3.52-.63,10.35,10.35,0,0,1,3.76.64,17.94,17.94,0,0,1,3,1.5l0.88-1.46h1.72l0.17,10.1H227a33.67,33.67,0,0,0-1.06-3.32,11.72,11.72,0,0,0-1.53-2.86,7,7,0,0,0-2.25-2,6.62,6.62,0,0,0-3.26-.74,5,5,0,0,0-3.47,1.31A4.14,4.14,0,0,0,214,6.85a5.52,5.52,0,0,0,.92,3.27,6.74,6.74,0,0,0,2.69,2.12,33.19,33.19,0,0,0,3.08,1.3q1.51,0.55,2.93,1.17A21.81,21.81,0,0,1,226.06,16,9.31,9.31,0,0,1,228.11,17.62Z" transform="translate(0 -0.47)"/><path class="cls-1" d="M45.83,59.81a7.11,7.11,0,0,1,1.43,2.35,8.74,8.74,0,0,1,.46,3,8.45,8.45,0,0,1-3,6.64,10.81,10.81,0,0,1-7.39,2.61,13.67,13.67,0,0,1-4.07-.63,15.75,15.75,0,0,1-3.52-1.52L28.83,73.8H27.11l-0.3-10.41h1.73a23,23,0,0,0,1.26,3.48,12.16,12.16,0,0,0,1.9,2.9,8.59,8.59,0,0,0,2.6,2,7.59,7.59,0,0,0,3.46.75,7.82,7.82,0,0,0,2.59-.39A4.52,4.52,0,0,0,42.14,71a4.47,4.47,0,0,0,1-1.67,6.7,6.7,0,0,0,.33-2.2,6.1,6.1,0,0,0-1-3.4,6.33,6.33,0,0,0-3.06-2.39Q38,60.83,36.2,60.16t-3.1-1.26a10.07,10.07,0,0,1-4-3A7.87,7.87,0,0,1,27.67,51a7.49,7.49,0,0,1,.71-3.22,8.41,8.41,0,0,1,2-2.68,9.13,9.13,0,0,1,2.93-1.75,10,10,0,0,1,3.54-.63,10.36,10.36,0,0,1,3.76.64,17.91,17.91,0,0,1,3,1.5l0.88-1.46h1.72l0.17,10.1H44.69a33.15,33.15,0,0,0-1.06-3.32,11.77,11.77,0,0,0-1.53-2.87,7,7,0,0,0-2.25-2,6.61,6.61,0,0,0-3.26-.74,5,5,0,0,0-3.47,1.3,4.14,4.14,0,0,0-1.44,3.19,5.52,5.52,0,0,0,.92,3.27,6.74,6.74,0,0,0,2.68,2.13,33.19,33.19,0,0,0,3.08,1.3q1.51,0.55,2.93,1.17a21.89,21.89,0,0,1,2.47,1.26A9.33,9.33,0,0,1,45.83,59.81Z" transform="translate(0 -0.47)"/><path class="cls-1" d="M75.6,47A14.93,14.93,0,0,1,78.75,52a18.24,18.24,0,0,1,1.14,6.57,17.91,17.91,0,0,1-1.16,6.58,14.62,14.62,0,0,1-3.22,5,13.93,13.93,0,0,1-4.63,3.17,14.87,14.87,0,0,1-11.48-.07A13.6,13.6,0,0,1,54.81,70a15,15,0,0,1-3-5.06,18.09,18.09,0,0,1-1.1-6.35A17.77,17.77,0,0,1,51.81,52,15.41,15.41,0,0,1,55,47a13.8,13.8,0,0,1,4.68-3.22,14.72,14.72,0,0,1,11.28,0A13.63,13.63,0,0,1,75.6,47ZM72.41,68.55a14.22,14.22,0,0,0,1.75-4.42,27.64,27.64,0,0,0-.06-11.25,14.26,14.26,0,0,0-1.79-4.46,8.57,8.57,0,0,0-3-2.84,8.05,8.05,0,0,0-4.07-1,7.82,7.82,0,0,0-4.37,1.18A9.16,9.16,0,0,0,58,48.9a15.06,15.06,0,0,0-1.6,4.42,26.07,26.07,0,0,0-.52,5.31,25.58,25.58,0,0,0,.56,5.57,14.14,14.14,0,0,0,1.76,4.42,8.64,8.64,0,0,0,2.92,2.95,8,8,0,0,0,4.2,1.06,8.07,8.07,0,0,0,4.14-1.07A8.38,8.38,0,0,0,72.41,68.55Z" transform="translate(0 -0.47)"/><path class="cls-1" d="M112.49,44.89a9.62,9.62,0,0,0-1.84.34,6.55,6.55,0,0,0-1.78.67,3,3,0,0,0-1,2.06,22.89,22.89,0,0,0-.27,3.86V74.07H105.7L87.27,49.19V64.87a18.79,18.79,0,0,0,.33,4.05,3.76,3.76,0,0,0,1,2,5,5,0,0,0,2,.88,12.53,12.53,0,0,0,2,.43v1.52H80.22V72.25a12,12,0,0,0,2-.42,5.17,5.17,0,0,0,1.72-.68,3.14,3.14,0,0,0,1-1.84,21.73,21.73,0,0,0,.28-4.21V50.15a6,6,0,0,0-.34-2,3.68,3.68,0,0,0-.92-1.52,6.5,6.5,0,0,0-2.09-1.21,7.44,7.44,0,0,0-2.13-.55V43.37H88.4L105.5,66.56V52.09a18.53,18.53,0,0,0-.34-4.08,3.21,3.21,0,0,0-1-1.9,7.17,7.17,0,0,0-2-.79,10.66,10.66,0,0,0-2.07-.43V43.37H112.5v1.52h0Z" transform="translate(0 -0.47)"/><path class="cls-1" d="M137.15,47A14.94,14.94,0,0,1,140.3,52a18.25,18.25,0,0,1,1.14,6.57,17.91,17.91,0,0,1-1.16,6.58,14.62,14.62,0,0,1-3.22,5,13.94,13.94,0,0,1-4.63,3.17A14.87,14.87,0,0,1,121,73.32a13.59,13.59,0,0,1-4.6-3.31,15,15,0,0,1-3-5.06,18.09,18.09,0,0,1-1.1-6.35,17.77,17.77,0,0,1,1.15-6.6,15.41,15.41,0,0,1,3.19-5,13.8,13.8,0,0,1,4.68-3.22,14.72,14.72,0,0,1,11.28,0A13.64,13.64,0,0,1,137.15,47ZM134,68.55a14.21,14.21,0,0,0,1.75-4.42,27.64,27.64,0,0,0-.06-11.25,14.26,14.26,0,0,0-1.79-4.46,8.57,8.57,0,0,0-3-2.84,8.05,8.05,0,0,0-4.07-1,7.82,7.82,0,0,0-4.37,1.18,9.15,9.15,0,0,0-2.93,3.15,15.06,15.06,0,0,0-1.6,4.42,26.07,26.07,0,0,0-.52,5.31A25.58,25.58,0,0,0,118,64.2a14.16,14.16,0,0,0,1.76,4.42,8.65,8.65,0,0,0,2.92,2.95,8,8,0,0,0,4.2,1.06A8.07,8.07,0,0,0,131,71.56,8.38,8.38,0,0,0,134,68.55Z" transform="translate(0 -0.47)"/><path class="cls-1" d="M179.31,73.79H165.88V72.26a14.94,14.94,0,0,0,1.88-.15,4.74,4.74,0,0,0,1.57-.36,2.79,2.79,0,0,0,1-.92,2.55,2.55,0,0,0,.31-1.32V47.39h-0.32l-10.38,25.9h-1.07L149,46.84h-0.28V65a18.22,18.22,0,0,0,.36,4,3.72,3.72,0,0,0,1,2,4.94,4.94,0,0,0,2,.86,11.82,11.82,0,0,0,1.93.43V73.8h-12.3V72.27a15.88,15.88,0,0,0,2-.32,3.93,3.93,0,0,0,1.64-.71,3.15,3.15,0,0,0,1-1.84,21.51,21.51,0,0,0,.28-4.14V49.69a6.39,6.39,0,0,0-.32-2.21,3.45,3.45,0,0,0-.92-1.38,4.22,4.22,0,0,0-1.63-.86,8.24,8.24,0,0,0-1.91-.32V43.37H152.2l8.71,22.82,7.45-19.09a18.91,18.91,0,0,0,.69-2.2,10.3,10.3,0,0,0,.31-1.53h9.92v1.52a11,11,0,0,0-1.53.19,10.12,10.12,0,0,0-1.38.32,1.57,1.57,0,0,0-1,.86,3.29,3.29,0,0,0-.26,1.31V69.49a2.81,2.81,0,0,0,.26,1.26,2.19,2.19,0,0,0,1,.92,4.94,4.94,0,0,0,1.38.4,11.5,11.5,0,0,0,1.56.2V73.8h0Z" transform="translate(0 -0.47)"/><path class="cls-1" d="M212.59,73.79H200V72.26a13.19,13.19,0,0,0,2.76-.43q1.1-.32,1.1-0.79a3.28,3.28,0,0,0,0-.46,2.3,2.3,0,0,0-.13-0.49l-2.52-6.82H190.47q-0.6,1.5-1,2.61t-0.68,2.06a14.72,14.72,0,0,0-.39,1.5,5.36,5.36,0,0,0-.11.92,1.58,1.58,0,0,0,1.35,1.33,10.88,10.88,0,0,0,3,.56v1.52H181.24V72.25a9,9,0,0,0,1.38-.25,4.54,4.54,0,0,0,1.38-.55,5.43,5.43,0,0,0,1.33-1.21,8,8,0,0,0,.92-1.75q2.3-5.72,5.06-12.88t4.93-12.71H198l10.12,26.22a5.14,5.14,0,0,0,.73,1.35,5,5,0,0,0,1.14,1,4.77,4.77,0,0,0,1.28.51,6.61,6.61,0,0,0,1.33.23v1.52ZM200.36,61.37l-4.6-11.8-4.54,11.8h9.14Z" transform="translate(0 -0.47)"/><rect class="cls-1" x="42.36" y="84.8" width="145.28" height="0.98"/><path class="cls-1" d="M69.1,98.26c-0.15-.1-0.29-0.2-0.46-0.3a3.16,3.16,0,0,0-1.77-.54,3.43,3.43,0,0,0-2.66,1.28,3.51,3.51,0,0,0-.64,2.06,3.86,3.86,0,0,0,.31,1.48,3.31,3.31,0,0,0,3,1.84,3.62,3.62,0,0,0,2.18-.83v1.49a4.66,4.66,0,0,1-2.21.57,4.76,4.76,0,0,1-3-1.09,4.44,4.44,0,0,1-1.53-3.46,4.53,4.53,0,0,1,1.1-3,4.88,4.88,0,0,1,3.49-1.53,5.59,5.59,0,0,1,2.22.57v1.52Z" transform="translate(0 -0.47)"/><path class="cls-1" d="M81.83,105.19H80.45l-0.91-2.13H75.73l-1,2.13H73.33l4.41-9.37Zm-5.57-3.28h2.81l-1.36-3.11Z" transform="translate(0 -0.47)"/><path class="cls-1" d="M87.93,96.34V104h2.69v1.19h-4V96.34h1.28Z" transform="translate(0 -0.47)"/><path class="cls-1" d="M98.4,96.32v8.83H97.1V96.32h1.3Z" transform="translate(0 -0.47)"/><path class="cls-1" d="M109.51,96.33v1.24h-3.06v2.17h3v1.18h-3.06v4.25h-1.26V96.33h4.36Z" transform="translate(0 -0.47)"/><path class="cls-1" d="M115.4,97.6a4.6,4.6,0,0,1,3.35-1.42,4.78,4.78,0,0,1,2.93,1,4.6,4.6,0,0,1,1.69,3.54,4.39,4.39,0,0,1-.36,1.72,4.57,4.57,0,0,1-4.26,2.81,4.78,4.78,0,0,1-3-1.07,4.49,4.49,0,0,1-1.63-3.61A4.65,4.65,0,0,1,115.4,97.6Zm0.73,5.19a3.4,3.4,0,0,0,4.69.57,3.31,3.31,0,0,0,1.28-2.59,3.42,3.42,0,0,0-.28-1.33A3.33,3.33,0,1,0,116.12,102.79Z" transform="translate(0 -0.47)"/><path class="cls-1" d="M132.7,105.17L130,101.4h-0.54v3.79h-1.24V96.33h2.59a2.93,2.93,0,0,1,1.68.46,2.47,2.47,0,0,1,.92,2,2.56,2.56,0,0,1-1.1,2.19,2.76,2.76,0,0,1-.8.31c0.41,0.59.81,1.18,1.24,1.76s0.64,0.86,1,1.31c0.19,0.26.36,0.54,0.54,0.8H132.7v0Zm-3.22-7.63v2.76h1a1.54,1.54,0,0,0,1.38-.62,1.64,1.64,0,0,0,.25-0.92,1.25,1.25,0,0,0-.43-1,1.74,1.74,0,0,0-1-.26h-1.23v0Z" transform="translate(0 -0.47)"/><path class="cls-1" d="M145.55,96.36h1.29v9.17c-1-1-2-2-3-3.06-0.6-.6-1.19-1.21-1.78-1.84s-1.21-1.29-1.79-2c0,0.43.06,0.85,0.07,1.26s0,0.75,0,1.13v4.09H139v-9.4c1.24,1.23,2.48,2.46,3.68,3.68,1,1,1.95,2,2.9,3,0-.28-0.06-0.57-0.06-0.84s0-.49,0-0.74V96.34Z" transform="translate(0 -0.47)"/><path class="cls-1" d="M154.44,96.32v8.83h-1.31V96.32h1.31Z" transform="translate(0 -0.47)"/><path class="cls-1" d="M167.7,105.19h-1.38l-0.9-2.13h-3.81l-1,2.13h-1.38l4.44-9.36Zm-5.57-3.28h2.81l-1.36-3.11Z" transform="translate(0 -0.47)"/></svg>